<?xml version="1.0" encoding="utf-8"?>
<!-- Uploaded to: SVG Repo, www.svgrepo.com, Generator: SVG Repo Mixer Tools -->
<svg fill="#000000" version="1.1" id="Layer_1" xmlns="http://www.w3.org/2000/svg" xmlns:xlink="http://www.w3.org/1999/xlink" 
	 width="800px" height="800px" viewBox="0 0 256 160" enable-background="new 0 0 256 160" xml:space="preserve">
<path d="M252,113h-5V91c0-7.4-5.52-13-13-13h-24c-0.5,0-1.1-0.27-1.44-0.6l-37.4-36.41c-1.68-1.68-3.72-2.91-6.16-2.99h-27v92h40
	c0.92,0,1.83-1.16,2-2c2.52-14.46,14.83-25.43,30.04-25.43c15.22,0,27.82,11.01,30.34,25.47c0.17,0.93,1.7,1.96,2.62,1.96h2
	c4.79,0,9-4.31,9-9.02v-6.22C254,113.84,253.01,113,252,113z M191,78h-41c-1.01,0-2-0.99-2-2V50c0-1.01,0.99-2,2-2h13
	c0.5,0,1.52,0.55,1.94,0.89L192,75C193.01,76.26,192.6,78,191,78z M2,2v119.44c0,4.48,3.52,8.56,8,8.56h22c0.92,0,1.83-1.16,2-2
	c2.52-14.46,15.33-24.44,30.54-24.44c15.21,0,27.82,10.02,30.34,24.48c0.17,0.93,1.2,1.96,2.12,1.96h33V2H2z M65.65,85.85
	c-18.71,0-33.9-15.19-33.9-33.9c0-18.81,15.09-34.1,33.9-34.1s34,15.19,34,34S84.36,85.85,65.65,85.85z M68.94,48.53
	c-4.7-1.91-6.88-2.82-6.88-5.16c0-1.71,1.88-3.42,5.33-3.42c3.46,0,5.97,1.07,7.51,1.71l1.92-6.71c-2.08-1.11-4.9-1.91-8.79-1.91
	v-5.33h-4.69v5.6c-6.27,1.27-9.69,5.33-9.69,10.49c0,5.6,3.88,8.75,10.12,10.93c4.49,1.75,6.34,2.72,6.34,5.07
	c0,2.34-1.91,4.05-5.8,4.05c-3.62,0-7.04-1.27-9.22-2.34l-1.71,6.87c1.98,1.11,6.07,2.18,10.12,2.18v5.16h4.7v-5.33
	c6.87-1.54,10.12-5.6,10.12-10.93C78.32,54.13,75.34,50.88,68.94,48.53z M210.04,110.48c-12.77,0-23.11,10.33-23.11,23.11
	c0,12.77,10.34,23.11,23.11,23.11c12.78,0,23.12-10.34,23.12-23.11C233.16,120.81,222.82,110.48,210.04,110.48z M210.04,142.44
	c-4.85,0-8.85-4-8.85-8.85c0-4.85,4-8.85,8.85-8.85c4.86,0,8.86,4,8.86,8.85C218.9,138.44,214.9,142.44,210.04,142.44z
	 M64.54,111.46c-12.78,0-23.11,10.34-23.11,23.11c0,12.78,10.33,23.12,23.11,23.12c12.77,0,23.11-10.34,23.11-23.12
	C87.65,121.8,77.31,111.46,64.54,111.46z M64.54,143.43c-4.85,0-8.85-4-8.85-8.86c0-4.85,4-8.85,8.85-8.85c4.85,0,8.85,4,8.85,8.85
	C73.39,139.43,69.39,143.43,64.54,143.43z"/>
</svg>